<svg width="24" height="24" viewBox="0 0 24 24" fill="none" xmlns="http://www.w3.org/2000/svg">
<g clip-path="url(#clip0_104_735)">
<path d="M11.9999 3C11.5399 3 11.0699 3.04 10.5999 3.14C7.83995 3.67 5.63995 5.9 5.11995 8.66C4.63995 11.27 5.59995 13.67 7.33995 15.22C7.76995 15.6 7.99995 16.13 7.99995 16.69V19C7.99995 20.1 8.89995 21 9.99995 21H10.2799C10.6299 21.6 11.2599 22 11.9999 22C12.7399 22 13.3799 21.6 13.7199 21H13.9999C15.0999 21 15.9999 20.1 15.9999 19V16.69C15.9999 16.14 16.2199 15.6 16.6399 15.23C18.0899 13.95 18.9999 12.08 18.9999 10C18.9999 6.13 15.8699 3 11.9999 3ZM12.4999 14H11.4999V11.41L9.66995 9.59L10.3799 8.88L11.9999 10.5L13.6199 8.88L14.3299 9.59L12.4999 11.42V14ZM13.4999 19C13.4899 19 13.4799 18.99 13.4699 18.99V19H10.5299V18.99C10.5199 18.99 10.5099 19 10.4999 19C10.2199 19 9.99995 18.78 9.99995 18.5C9.99995 18.22 10.2199 18 10.4999 18C10.5099 18 10.5199 18.01 10.5299 18.01V18H13.4699V18.01C13.4799 18.01 13.4899 18 13.4999 18C13.7799 18 13.9999 18.22 13.9999 18.5C13.9999 18.78 13.7799 19 13.4999 19ZM13.4999 17H10.4999C10.2199 17 9.99995 16.78 9.99995 16.5C9.99995 16.22 10.2199 16 10.4999 16H13.4999C13.7799 16 13.9999 16.22 13.9999 16.5C13.9999 16.78 13.7799 17 13.4999 17Z" fill="#FF0009"/>
</g>
<defs>
<clipPath id="clip0_104_735">
<rect width="24" height="24" fill="white"/>
</clipPath>
</defs>
</svg>
