<svg width="24" height="24" viewBox="0 0 24 24" fill="none" xmlns="http://www.w3.org/2000/svg">
<g clip-path="url(#clip0_104_747)">
<path d="M18.17 12L15.71 14.46C15.32 14.85 15.32 15.48 15.71 15.87C16.1 16.26 16.73 16.26 17.12 15.87L20.3 12.7C20.69 12.31 20.69 11.68 20.3 11.29L17.12 8.12001C16.73 7.73001 16.1 7.73001 15.71 8.12001C15.32 8.51001 15.32 9.14001 15.71 9.53001L18.17 12ZM5.83003 12L8.29003 9.54001C8.68003 9.15001 8.68003 8.52001 8.29003 8.13001C7.90003 7.74001 7.27003 7.74001 6.88003 8.13001L3.70003 11.3C3.31003 11.69 3.31003 12.32 3.70003 12.71L6.87003 15.88C7.26003 16.27 7.89003 16.27 8.28003 15.88C8.67003 15.49 8.67003 14.86 8.28003 14.47L5.83003 12Z" fill="#FF0009"/>
</g>
<defs>
<clipPath id="clip0_104_747">
<rect width="24" height="24" fill="white" transform="matrix(0 1 -1 0 24 0)"/>
</clipPath>
</defs>
</svg>
